<svg xmlns="http://www.w3.org/2000/svg" width="256" height="256"><path fill-opacity=".016" d="M0 128.004v128.004l128.25-.254 128.25-.254.254-127.75L257.008 0H0v128.004m.485.496c0 70.4.119 99.053.265 63.672.146-35.38.146-92.98 0-128C.604 29.153.485 58.1.485 128.5" fill="#363435" fill-rule="evenodd"/><path fill-opacity=".231" d="M0 128.011v40.997l128.25-.254 128.25-.254.261-41 .261-41-128.511.258L0 87.015v40.996m.23.489c.162 28.469.321 33.435.519 16.25L1.035 120H10v-13h13v-6H10v-6h15v-6.886l-12.502-.307L-.004 87.5l.234 41m31.569-24.636l-.299 16.139 4.75-.002L41 120v-6.5c0-9.311 2.373-8.82 8.456 1.75 2.676 4.649 2.838 4.75 7.639 4.75 2.698 0 4.905-.243 4.905-.54 0-1.451-4.455-9.006-6.542-11.093l-2.364-2.364 2.832-1.465c4.893-2.53 5.745-9.62 1.621-13.494-2.185-2.052-3.709-2.359-13.951-2.811l-11.498-.508-.299 16.139m43.739-14.162c-.392.989-2.658 6.973-5.035 13.298a2722.174 2722.174 0 01-5.388 14.25L64.05 120h4.905c4.326 0 4.944-.266 5.225-2.25.294-2.07.841-2.25 6.82-2.25s6.526.18 6.82 2.25c.282 1.991.895 2.25 5.317 2.25 4.31 0 4.92-.241 4.43-1.75-.313-.963-2.947-8.05-5.855-15.75l-5.286-14-5.088-.298c-4.137-.242-5.22.038-5.8 1.5M103 103.943V120h8v-8.5c0-4.675.382-8.5.85-8.5.467 0 3.395 3.825 6.506 8.5l5.657 8.5H133V88h-8l-.118 7.75c-.066 4.263-.046 8.313.043 9 .376 2.891-1.776.719-7.443-7.51-5.82-8.453-6.156-8.75-10.25-9.047L103 87.885v16.058m44.062-14.116c-4.789 2.568-7.062 7.319-7.062 14.76 0 10.92 6.421 16.95 17.123 16.082 6.589-.535 10.186-2.587 11.935-6.81 1.297-3.13.355-4.803-2.726-4.844-.643-.008-1.88-.288-2.75-.622-.995-.382-1.582-.068-1.582.845 0 2.235-3.358 4.762-6.329 4.762-4.438 0-6.671-3.18-6.671-9.5 0-4.167.485-5.985 2-7.5 2.599-2.599 7.387-2.574 9.833.051 1.463 1.57 2.586 1.89 4.789 1.362 4.343-1.041 4.495-1.286 2.808-4.549-2.913-5.632-14.361-7.795-21.368-4.037m35.922-.003c-5.108 2.674-8.266 9.21-7.639 15.813.712 7.511 2.981 11.177 8.397 13.573 3.568 1.578 5.837 1.907 10.12 1.465 9.46-.977 14.134-6.523 14.136-16.777.002-6.694-2.71-11.48-8.018-14.146-4.555-2.289-12.551-2.255-16.996.072M213 92c0 3.333.333 4 2 4 2.537 0 2.555 1.78.046 4.451-2.627 2.796-1.294 5.287 1.911 3.572 2.815-1.506 5.043-6.805 5.043-11.991V88h-9v4m18.775-2.496c-4.935 2.778-6.277 8.42-2.972 12.501 1.01 1.248 4.857 3.216 8.75 4.477 6.469 2.097 6.947 2.45 6.947 5.135 0 2.697-.258 2.883-4 2.883-3.189 0-4.2-.456-4.987-2.25-.802-1.827-1.789-2.25-5.25-2.25-4.803 0-5.563 1.699-2.632 5.883 4.707 6.721 20.031 6.721 24.738 0 2.27-3.24 2.106-9.408-.314-11.828-1.757-1.757-10.639-5.055-13.614-5.055-.658 0-1.756-.675-2.441-1.5-.993-1.197-.993-1.803 0-3 1.77-2.132 5.76-1.856 7.232.5.932 1.491 2.332 2 5.509 2 5.005 0 5.49-1.458 1.88-5.655-2.104-2.445-3.177-2.801-9.25-3.071-4.8-.212-7.692.158-9.596 1.23M41 98c0 3.797.156 4 3.066 4C48.16 102 51 100.362 51 98s-2.84-4-6.934-4c-2.91 0-3.066.203-3.066 4m145.766-1.25c-2.299 2.607-3.076 7.781-1.765 11.754 3.037 9.202 13.999 6.301 13.999-3.705 0-3.985-1.397-7.696-3.4-9.034-2.042-1.363-7.277-.78-8.834.985m-107.671 4.5l-1.726 6c-.421 1.462.165 1.75 3.564 1.75 2.237 0 4.067-.298 4.067-.662C85 106.682 81.563 97 80.976 97c-.363 0-1.209 1.912-1.881 4.25M86 137v4h83v-8H86v4m-75 24c0 6.333.19 7 2 7 1.449 0 2-.667 2-2.421 0-1.863.674-2.568 2.931-3.064 4.209-.924 5.64-2.966 4.237-6.045-.979-2.149-1.777-2.47-6.147-2.47H11v7m15 0c0 6.333.19 7 2 7s2-.667 2-7-.19-7-2-7-2 .667-2 7m7-6c0 .55 1.575 1 3.5 1s3.5.362 3.5.804c0 .442-1.536 2.292-3.412 4.111-1.877 1.819-3.635 4.158-3.907 5.196-.449 1.717.134 1.889 6.413 1.889 3.937 0 6.906-.43 6.906-1 0-.55-1.8-1-4-1s-4-.262-4-.582c0-.32 1.575-2.503 3.5-4.853 1.925-2.349 3.5-4.787 3.5-5.418 0-.735-2.154-1.147-6-1.147-3.333 0-6 .444-6 1m15 0c0 .55 1.575 1 3.5 1s3.5.359 3.5.797c0 .438-1.8 2.555-4 4.703-5.675 5.542-5.307 6.5 2.5 6.5 3.667 0 6.5-.436 6.5-1 0-.55-1.575-1-3.5-1s-3.5-.449-3.5-.997c0-.549 1.575-2.741 3.5-4.871 1.925-2.131 3.5-4.382 3.5-5.003 0-.713-2.21-1.129-6-1.129-3.333 0-6 .444-6 1m18.509.25c-.236.688-1.347 3.725-2.469 6.75-1.121 3.025-2.039 5.613-2.039 5.75-.001.137.899.25 1.999.25s2-.45 2-1 1.323-1 2.941-1c1.618 0 3.219.45 3.559 1 .34.55 1.442 1 2.448 1 1.699 0 1.642-.505-.792-7-2.201-5.875-2.991-7-4.921-7-1.264 0-2.491.563-2.726 1.25M93 160.948c0 5.602.308 7.052 1.5 7.052.903 0 1.5-.925 1.5-2.324 0-1.853.758-2.511 3.75-3.25 3.443-.85 3.75-1.213 3.75-4.426v-3.5l-5.25-.302-5.25-.303v7.053m14.14-.432c-2.499 6.984-2.274 8.673.892 6.696 2.344-1.464 6.968-1.605 6.968-.212 0 .55.93 1 2.067 1 2.268 0 2.266-.016-.954-8.5-1.456-3.835-2.448-5.068-4.256-5.291-2.076-.255-2.639.497-4.717 6.307m14.849-4.495c-1.374 2.568-.693 3.621 3.726 5.757 4.136 1.999 4.739 3.587 1.535 4.042-1.237.175-2.25-.162-2.25-.75 0-.589-.9-1.07-2-1.07-2.267 0-2.563 1.037-.8 2.8 1.67 1.67 8.303 1.504 9.754-.245 2.19-2.638.842-5.959-2.91-7.172-3.928-1.27-5.257-3.383-2.127-3.383 1.146 0 2.083.408 2.083.906 0 .499.909.669 2.021.378 3.337-.872.321-3.284-4.108-3.284-2.832 0-4.127.531-4.924 2.021M135 155.5c0 .933.944 1.5 2.5 1.5 2.364 0 2.5.3 2.5 5.5 0 4.833.242 5.5 2 5.5s2-.667 2-5.5.242-5.5 2-5.5c1.111 0 2-.667 2-1.5 0-1.179-1.389-1.5-6.5-1.5s-6.5.321-6.5 1.5m15.86 5.458c-2.447 6.53-2.506 7.042-.808 7.042 1.006 0 2.108-.45 2.448-1 .34-.55 1.941-1 3.559-1s2.941.45 2.941 1 .9 1 2 1 1.993-.113 1.983-.25c-.009-.137-1.081-3.175-2.382-6.75-1.918-5.27-2.813-6.555-4.734-6.792-2.095-.259-2.674.522-5.007 6.75m29.795-5.129c-2.237 2.471-2.138 8.424.174 10.516 2.058 1.863 7.319 2.182 10.237.62 1.244-.666 1.934-2.092 1.934-4 0-2.615-.348-2.965-2.941-2.965-3.55 0-4.766 1.502-2.33 2.876 1.337.754 1.489 1.284.622 2.161-1.558 1.574-5.106.311-5.867-2.088-1.426-4.494 1.882-7.894 5.696-5.853 2.26 1.21 4.529-.141 3.374-2.009-1.142-1.847-9.043-1.309-10.899.742M196 161c0 6.333.19 7 2 7 1.556 0 2-.667 2-3 0-1.65.438-3 .974-3s1.673 1.35 2.526 3c.929 1.796 2.343 3 3.526 3 2.392 0 2.474-.841.374-3.839-1.471-2.101-1.465-2.432.08-4.139 1.334-1.473 1.45-2.285.565-3.939-.921-1.721-2.066-2.083-6.58-2.083H196v7m16 0c0 6.333.19 7 2 7s2-.667 2-7-.19-7-2-7-2 .667-2 7m8 0v7h5.5c4.222 0 5.5-.348 5.5-1.5 0-1.048-1.056-1.5-3.5-1.5H224v-5.5c0-4.833-.242-5.5-2-5.5-1.81 0-2 .667-2 7m14 0v7h5c3.778 0 5-.367 5-1.5 0-1.048-1.056-1.5-3.5-1.5H237v-5.5c0-4.222-.348-5.5-1.5-5.5-1.19 0-1.5 1.444-1.5 7m-219-3c0 1.506.522 2.046 1.75 1.81.962-.186 1.75-1 1.75-1.81s-.788-1.624-1.75-1.81c-1.228-.236-1.75.304-1.75 1.81m81.701-1.368c-1.574 1.575-.64 3.498 1.549 3.188 1.237-.176 2.25-.989 2.25-1.806 0-1.589-2.634-2.547-3.799-1.382M200 158c0 1.646.518 2.065 2.25 1.82 1.238-.176 2.25-.995 2.25-1.82 0-.825-1.012-1.644-2.25-1.82-1.732-.245-2.25.174-2.25 1.82m-132.245 2.5c-.371 1.942-.063 2.5 1.384 2.5 1.958 0 2.255-.809 1.254-3.418-.898-2.339-2.095-1.922-2.638.918m42.852-.918c-1.001 2.609-.704 3.418 1.254 3.418 1.447 0 1.755-.558 1.384-2.5-.543-2.84-1.74-3.257-2.638-.918m44 0c-.96 2.502-.721 3.418.893 3.418.933 0 1.5-.944 1.5-2.5 0-2.793-1.459-3.353-2.393-.918" fill="#363435" fill-rule="evenodd"/><path fill-opacity=".549" d="M-.001 87.75c-.001.412 5.737.75 12.75.75H25.5v6l-7.25.294-7.25.294v2.956c0 2.946.02 2.956 6 2.956h6v3c0 2.997-.005 3-5.954 3h-5.955l-.295 6.75-.296 6.75H-.004l.002 24.25L0 169h11v-16.254l5.107.49c5.313.511 6.852 1.737 6.878 5.479.016 2.389-2.602 4.285-5.919 4.285-1.629 0-2.066.635-2.066 3 0 2.97.056 3 5.5 3H26v-8c0-7.333.167-8 2-8s2 .667 2 8c0 6.368.3 8 1.469 8 .925 0 1.245-.582.864-1.574-.393-1.024.914-3.12 3.74-6L40.416 157h-3.708c-3.041 0-3.708-.36-3.708-2 0-1.779.667-2 6.031-2 8.05 0 8.689 1.672 2.896 7.574L37.584 165h4.324c3.833 0 4.266.228 3.802 2-.335 1.284-.03 2 .852 2 .816 0 1.139-.614.795-1.511-.342-.892.928-3.351 3.099-6L54.134 157h-3.067c-2.424 0-3.067-.429-3.067-2.048 0-1.874.522-2.022 6.171-1.75 3.674.178 6.33.783 6.566 1.498.218.66-1.491 3.248-3.798 5.75L52.745 165h4.244c3.752 0 4.184.232 3.721 2-.287 1.1-.227 1.993.134 1.984.361-.009 1.765-3.435 3.12-7.613 3.712-11.449 6.747-11.329 10.871.428L77.361 169l7.569.002 7.57.001V153.5l3.826-.315c6.825-.562 11.028 4.318 7.103 8.244-.865.864-2.614 1.571-3.887 1.571-1.808 0-2.411.657-2.755 3-.423 2.878-.288 3 3.306 3 3.635 0 3.797-.156 5.462-5.25 2.796-8.554 4.29-10.913 6.692-10.562 1.687.247 2.664 1.922 4.692 8.038 2.176 6.566 2.899 7.729 4.811 7.75L124 169l-2.036-2.036c-1.121-1.121-1.769-2.471-1.441-3 .931-1.507 3.634-1.132 4.965.689.665.909 1.727 1.332 2.36.941 2.008-1.241 1.267-2.246-2.848-3.862-4.362-1.713-5.252-4.337-2.429-7.161 2.794-2.793 10.429-1.355 10.429 1.964 0 1.766-3.126 1.939-4.8.265-.855-.855-1.509-.891-2.273-.127-.765.765-.261 1.276 1.75 1.778 3.318.828 6.323 3.301 6.323 5.204 0 .74-.9 2.245-2 3.345l-2 2 4.75.002 4.75.002-.339-6.002c-.289-5.124-.618-6.002-2.25-6.002-1.259 0-1.911-.698-1.911-2.046 0-1.888.52-2.023 6.74-1.75 5.483.241 6.802.622 7.073 2.046.245 1.287-.324 1.75-2.151 1.75-2.332 0-2.505.367-2.823 6.002-.316 5.596-.192 6.002 1.831 6 1.732-.002 2.515-1.06 3.885-5.252 2.796-8.554 4.29-10.913 6.692-10.562 1.687.247 2.664 1.922 4.692 8.038l2.561 7.725 9.861.025c9.538.023 9.791-.033 7.719-1.726-1.177-.963-2.406-3.404-2.729-5.427-.491-3.063-.159-4.105 1.985-6.25 2.955-2.955 7.105-3.354 10.458-1.005 3.12 2.185 1.838 3.501-3.11 3.193-4.165-.26-4.184-.245-4.184 3.239 0 3.075.334 3.538 2.75 3.816 1.513.174 2.75-.163 2.75-.75 0-.586-.675-1.066-1.5-1.066s-1.5-.675-1.5-1.5c0-1.048 1.056-1.5 3.5-1.5 3.303 0 3.5.188 3.5 3.347 0 2.483-.581 3.628-2.25 4.433-2.057.992-1.929 1.09 1.5 1.152L196 169v-16h3.935c5.847 0 9.065 1.518 9.065 4.275 0 1.279-.474 2.799-1.054 3.379-1.126 1.126 1.676 8.346 3.239 8.346.448 0 .815-3.6.815-8 0-7.333.167-8 2-8s2 .667 2 8c0 7.211.189 8 1.912 8 1.721 0 1.909-.775 1.882-7.75-.027-7.138.138-7.775 2.088-8.07 1.96-.295 2.118.134 2.118 5.75V165h3.5c2.833 0 3.5.381 3.5 2 0 1.1.563 2.001 1.25 2.002.893.001 1.25-2.215 1.25-7.75 0-7.085.172-7.752 2-7.752 1.733 0 2.04.767 2.3 5.75l.3 5.75h3.567c3.1 0 3.496.267 3.031 2.046-.502 1.919-.154 2.027 5.634 1.75l6.168-.296v-82l-7.5.397c-5.564.295-6.726.573-4.5 1.077 4.833 1.094 7.221 2.788 8.302 5.889.981 2.813.897 2.925-2.644 3.51-5.469.904-5.968.802-6.658-1.373-.801-2.525-7.5-2.952-7.5-.479 0 1.686 2.3 2.854 8.908 4.526 5.344 1.352 10.092 5.786 10.092 9.426 0 3.872-2.631 8.285-5.967 10.01-3.875 2.004-14.246 1.976-18.161-.049-2.545-1.316-6.736-7.921-5.681-8.951.17-.166 2.196-.436 4.501-.6 3.555-.254 4.517.113 6.323 2.409 2.39 3.038 6.043 3.548 8.055 1.124 1.75-2.109.199-4.525-3.641-5.671-9.618-2.871-11.644-4.015-13.044-7.367-2.562-6.13.852-10.888 9.115-12.706 1.1-.242-1.825-.493-6.5-.558l-8.5-.118.33 5.83c.29 5.119.005 6.217-2.339 9.002-1.468 1.745-3.318 3.172-4.111 3.172-2.409 0-2.661-2.719-.457-4.923 2.783-2.783 2.617-4.077-.524-4.077-2.468 0-2.582-.228-2.242-4.5l.357-4.5-9.507.102c-6.724.073-8.563.327-6.282.869 7.939 1.886 11.613 7.133 11.636 16.616.026 11.042-5.52 16.413-16.948 16.413-10.598 0-16.412-6.024-16.408-17 .004-8.478 4.342-14.145 12.27-16.029 1.912-.454-3.492-.766-13.275-.766-10.746 0-15.285.285-13.014.819 3.557.837 9.014 5.907 9.014 8.375 0 1.359-2.903 2.561-6.25 2.587-.962.008-2.65-.886-3.75-1.986-2.592-2.592-6.195-2.547-8.595.107-2.911 3.22-2.595 12.511.511 15.026 1.268 1.027 3.156 1.867 4.195 1.867 1.976 0 5.321-2.796 6.085-5.087.366-1.1 1.187-1.115 4.625-.085 2.298.689 4.179 1.618 4.179 2.064 0 1.752-4.693 7.646-7.03 8.829-3.391 1.715-13.451 1.599-16.923-.197-4.724-2.442-7.54-8.078-7.507-15.024.043-9.295 3.813-14.663 11.583-16.498 1.857-.438-31.386-.843-73.873-.9-42.487-.056-77.25.236-77.251.648M31 104.418V121h10v-6.333c0-3.484.269-6.603.598-6.931 1.368-1.369 3.637.859 7.002 6.876L52.172 121h5.414c2.978 0 5.414-.24 5.414-.533 0-1.505-5.064-10.22-6.905-11.884l-2.121-1.916 3.241-2.705c2.692-2.248 3.24-3.402 3.24-6.828 0-2.944-.645-4.769-2.253-6.379-2.053-2.056-3.352-2.284-14.727-2.587L31 87.837v16.581m44.625-15.62C74.678 90.33 64 118.976 64 119.984c0 .559 2.064 1.016 4.587 1.016 4.178 0 4.688-.267 5.719-3 1.071-2.838 1.433-3 6.694-3s5.623.162 6.694 3c1.058 2.803 1.473 3 6.326 3 4.543 0 5.107-.219 4.503-1.75-.38-.963-3.183-8.388-6.228-16.5L86.757 88h-5.319c-2.926 0-5.542.359-5.813.798m26.6 15.452l.275 16.25 4.71.303 4.711.303.289-8.661.29-8.66 5.935 8.655 5.934 8.655 4.566-.298 4.565-.297.275-16.25.275-16.25h-9.972l-.289 8.61-.289 8.61-5.843-8.61-5.844-8.61h-9.863l.275 16.25M41 98c0 2.818.236 3 3.878 3 4.223 0 6.515-1.812 5.532-4.373C49.965 95.466 48.528 95 45.393 95 41.179 95 41 95.122 41 98m146.039-.811c-3.068 3.292-2.842 11.099.416 14.356 2.94 2.941 5.513 3.111 8.649.572 1.944-1.574 2.325-2.822 2.325-7.617s-.381-6.043-2.325-7.617c-3.086-2.498-6.562-2.381-9.065.306m-107.39 3.561a99.44 99.44 0 01-1.242 5c-.566 1.989-.279 2.25 2.476 2.25 3.458 0 3.633-.547 1.959-6.134-1.366-4.559-2.364-4.908-3.193-1.116M.434 144.5c-.001 13.75.14 19.514.313 12.808.172-6.705.173-17.955.001-25-.172-7.044-.314-1.558-.314 12.192m84.964-11.095c-.296.772-.395 2.91-.218 4.75l.32 3.345 42.25.261 42.25.261V132h-42.031c-35.173 0-42.12.229-42.571 1.405M15 158.5c0 1.03.655 1.52 1.75 1.31 2.108-.406 1.975-2.181-.197-2.633-.906-.189-1.553.362-1.553 1.323m82 .083c0 1.766 2.153 1.459 2.771-.395.218-.654-.317-1.188-1.188-1.188-.87 0-1.583.713-1.583 1.583m103-.75c0 1.409 1.126 2.056 2.598 1.491 2.087-.801 1.695-2.324-.598-2.324-1.1 0-2 .375-2 .833m-131.378 1.992c-.443 1.279-.539 2.592-.213 2.917 1.036 1.037 1.765-.492 1.385-2.906l-.368-2.336-.804 2.325m42.393.425c-.008 1.512.435 2.75.985 2.75 1.264 0 1.264-2.043 0-4-.755-1.169-.973-.893-.985 1.25m44-1.582c-.008.643-.288 1.88-.622 2.75-.398 1.038-.055 1.582 1 1.582.884 0 1.6-.562 1.592-1.25-.02-1.621-1.949-4.64-1.97-3.082M200 166c0 2.681.326 3 3.068 3h3.068L204 166c-1.175-1.65-2.556-3-3.068-3-.513 0-.932 1.35-.932 3m-134 1.5c-1.072 1.292-.677 1.5 2.846 1.5 3.226 0 3.969-.317 3.516-1.5-.317-.825-1.598-1.5-2.847-1.5-1.248 0-2.83.675-3.515 1.5m42.638 0c-.453 1.183.29 1.5 3.516 1.5 3.523 0 3.918-.208 2.846-1.5-.685-.825-2.267-1.5-3.515-1.5-1.249 0-2.53.675-2.847 1.5m44.021-.054c-.47 1.226.154 1.554 2.956 1.554 2.394 0 3.418-.408 3.141-1.25-.624-1.901-5.393-2.139-6.097-.304" fill="#363435" fill-rule="evenodd"/><path fill-opacity=".414" d="M12.75 87.747l13.25.311V95h-7.5c-7.294 0-7.5.067-7.5 2.452 0 2.31.363 2.47 6.25 2.75l6.25.298v7l-6.25.298-6.25.297V121H0v48h10v-16h5.3c5.91 0 7.7 1.162 7.7 5 0 3.174-1.675 5-4.587 5-1.664 0-2.291.716-2.626 3-.438 2.98-.408 3 4.386 3H25V152.867l2.75.317c2.736.314 2.75.355 2.75 8.068 0 4.263.337 7.751.75 7.75.413-.001.75-.996.75-2.21s1.666-3.914 3.703-6L39.406 157h-3.203c-2.536 0-3.203-.416-3.203-2 0-1.795.667-2 6.5-2 7.84 0 8.236 1.044 2.88 7.582L38.759 165h3.918c3.252 0 4.58-.679 7.823-4l3.906-4h-3.703c-3.036 0-3.703-.36-3.703-2 0-1.81.667-2 7-2 8.572 0 9.054 1.331 2.792 7.712L52.584 165h4.124c2.269 0 4.283.474 4.476 1.053.194.58 1.459-2.141 2.814-6.046 2.356-6.796 2.587-7.087 5.407-6.803 2.72.273 3.144.89 5.52 8.036l2.575 7.739 7.25.011L92 169v-16h4.566c6.032 0 8.434 1.377 8.434 4.835 0 3.52-1.656 5.165-5.2 5.165-2.444 0-2.8.381-2.8 3 0 2.762.278 3 3.5 3 2.101 0 3.5-.491 3.5-1.229 0-.676 1.164-4.276 2.587-8 2.325-6.084 2.866-6.771 5.327-6.771 2.526 0 2.957.625 5.525 8 1.859 5.341 3.298 8 4.328 8 1.35 0 1.336-.229-.112-1.829-.91-1.006-1.655-2.356-1.655-3 0-1.488 4.239-1.532 5.712-.059.612.612 1.715.904 2.451.648.765-.267-.375-1.279-2.663-2.367-4.258-2.023-5.672-5.276-3.454-7.948 1.451-1.749 8.084-1.915 9.754-.245 1.913 1.913 1.394 3.799-1.05 3.815-2.204.014-2.198.04.25 1.275 3.075 1.55 3.748 5.226 1.425 7.792-1.684 1.861-1.612 1.918 2.42 1.918H139v-5.43c0-4.871-.232-5.464-2.25-5.75-1.477-.21-2.25-1.007-2.25-2.32 0-1.789.765-2.031 7.25-2.294 7.177-.291 7.25-.268 7.25 2.25 0 2.047-.489 2.544-2.5 2.544-2.364 0-2.5.3-2.5 5.5 0 4.575.294 5.498 1.75 5.49 1.291-.008 2.425-2.04 4.325-7.75 2.371-7.13 2.805-7.763 5.501-8.035 2.819-.284 3.031 0 5.785 7.75l2.858 8.045h18.13l-2.175-2.314c-2.979-3.172-2.913-8.643.14-11.512 2.768-2.6 8.791-2.926 11.115-.603 2.763 2.764 1.872 3.701-2.846 2.994-3.885-.583-4.496-.416-5.067 1.386-.943 2.971.325 6.049 2.492 6.049 1.031 0 2.152-.45 2.492-1 .34-.55-.117-1-1.014-1-.989 0-1.505-.66-1.309-1.676.225-1.169 1.382-1.698 3.823-1.75 3.214-.068 3.525.184 3.806 3.08.23 2.364-.265 3.554-1.972 4.75L189.555 169l2.972.002 2.973.001V153.5l5.331-.305c3.071-.176 5.933.194 6.75.872 1.632 1.354 1.881 5.071.438 6.514-.917.917 1.708 8.301 2.981 8.388.275.019.5-3.454.5-7.717 0-7.713.014-7.754 2.75-8.068l2.75-.317v8.067c0 4.711.416 8.066 1 8.066.584 0 1-3.355 1-8.066v-8.067l2.75.317c2.56.294 2.771.674 3.05 5.506.291 5.035.396 5.2 3.5 5.5 2.589.251 3.185.739 3.121 2.56-.044 1.238.293 2.25.75 2.25.456 0 .829-3.6.829-8 0-7.867.042-8 2.5-8 2.364 0 2.5.3 2.5 5.5v5.5h3.5c3.085 0 3.5.302 3.5 2.55 0 2.472.175 2.541 5.75 2.25l5.75-.3v-82l-5.966.35c-5.914.346-5.938.361-2.878 1.647 3.424 1.44 6.344 4.996 6.344 7.726 0 2.78-9.041 2.542-10.807-.285-1.417-2.27-6.223-2.401-6.949-.189-.445 1.356-.396 1.379 7.853 3.666 7.366 2.042 10.903 5.553 10.903 10.821 0 11.112-18.032 15.932-26.799 7.165-2.245-2.245-3.241-4.097-3.024-5.624.275-1.936 1.007-2.321 4.891-2.574 4.063-.265 4.696-.016 5.728 2.25.914 2.005 1.887 2.547 4.576 2.547 6.662 0 5.043-5.137-2.038-6.465-4.962-.931-8.851-3.007-10.773-5.752-3.267-4.664-1.056-10.79 4.817-13.346 3.037-1.322 2.938-1.36-3.628-1.398L222 87v6.599c0 6.092-.238 6.821-3.106 9.5-3.68 3.437-4.473 3.557-5.9.889-.899-1.679-.615-2.419 1.714-4.469l2.792-2.456-2.75-.031C212.121 97.001 212 96.78 212 92v-5l-8.25.086c-6.281.065-7.562.292-5.369.948 6.345 1.9 10.619 8.488 10.619 16.369 0 8.942-4.229 14.733-12.146 16.632-12.879 3.09-22.229-3.869-22.229-16.543 0-7.892 2.365-12.203 8.36-15.242l4.439-2.25h-26.893l3.485 1.863c3.342 1.787 7.807 7.647 6.683 8.772-.297.297-2.233.922-4.302 1.388-3.243.732-4.164.509-6.693-1.619-5.223-4.395-9.704-1.23-9.704 6.853 0 6.758 1.267 8.743 5.582 8.743 2.857 0 3.829-.559 5.215-3.002 1.103-1.943 2.232-2.8 3.203-2.43.825.315 2.737.822 4.25 1.127 3.121.63 3.412 2.124 1.233 6.338-2.237 4.326-6.881 6.396-14.258 6.356-9.886-.055-15.294-5.197-16.02-15.233-.607-8.384 2.049-14.083 7.914-16.986l4.381-2.168-76 .217c-41.8.12-70.038.358-62.75.528M31 104.5V121h11v-6.5c0-3.575.417-6.5.927-6.5 1.35 0 4.366 4.107 6.511 8.864L51.304 121h11.329c11.25 0 11.333-.017 11.956-2.5.579-2.306 1.076-2.5 6.411-2.5 5.335 0 5.832.194 6.411 2.5.573 2.286 1.096 2.5 6.108 2.5 3.015 0 5.465-.338 5.446-.75-.019-.412-2.641-7.725-5.826-16.25l-5.791-15.5-6.044-.294-6.044-.295-5.779 15.512c-3.178 8.531-6.17 15.269-6.649 14.973-.478-.296-1.981-2.73-3.339-5.411-1.359-2.68-3.223-5.294-4.144-5.81-1.489-.833-1.434-1.013.499-1.627 2.566-.814 5.152-5.369 5.152-9.075 0-1.57-1.176-3.803-2.923-5.55-2.908-2.908-2.985-2.923-15-2.923H31v16.5m71 0V121h10l.007-8.75.007-8.75 5.743 8.731 5.743 8.731 5.25.019L134 121V88h-10l-.007 8.75-.007 8.75-5.743-8.731-5.743-8.731-5.25-.019L102 88v16.5m-60-6.56c0 2.675.346 3.058 2.75 3.045 3.685-.021 5.523-1.323 5.09-3.605-.26-1.368-1.375-1.964-4.098-2.19-3.575-.297-3.742-.174-3.742 2.75m147.235-1.839c-1.245.465-2.746 2.095-3.335 3.622-1.243 3.226-.623 9.701 1.133 11.816 1.708 2.059 7.317 1.837 9.312-.368 1.727-1.908 2.314-10.587.869-12.858-1.232-1.939-5.525-3.128-7.979-2.212m-109.54 5.649c-.305 1.513-.86 3.537-1.232 4.5-.558 1.441-.117 1.75 2.497 1.75 2.555 0 3.073-.342 2.655-1.75-.286-.963-.815-2.987-1.176-4.5S81.438 99 81.017 99c-.422 0-1.017 1.237-1.322 2.75M.432 145c0 13.475.142 18.988.315 12.25.173-6.738.173-17.762 0-24.5-.173-6.737-.315-1.225-.315 12.25M2 137v5l125.5-.008 125.5-.008v-9.968l-125.5-.008L2 132v5m124 20c0 .55.477 1 1.059 1s.781-.45.441-1-.816-1-1.059-1-.441.45-.441 1m-110 1c0 .55.45 1 1 1s1-.45 1-1-.45-1-1-1-1 .45-1 1m81 0c0 .55.675 1 1.5 1s1.5-.45 1.5-1-.675-1-1.5-1-1.5.45-1.5 1m104 0c0 .55.675 1 1.5 1s1.5-.45 1.5-1-.675-1-1.5-1-1.5.45-1.5 1m-132.362 2.5c-.316.825-.139 1.5.393 1.5.533 0 .969-.675.969-1.5s-.177-1.5-.393-1.5c-.216 0-.652.675-.969 1.5m42.362 0c0 .825.436 1.5.969 1.5.532 0 .709-.675.393-1.5-.317-.825-.753-1.5-.969-1.5-.216 0-.393.675-.393 1.5m44 0c0 .825.436 1.5.969 1.5.532 0 .709-.675.393-1.5-.317-.825-.753-1.5-.969-1.5-.216 0-.393.675-.393 1.5m46 5.5c0 2.346.442 3 2.026 3 1.929 0 1.951-.143.474-3-.853-1.65-1.765-3-2.026-3-.261 0-.474 1.35-.474 3m-134.341 1.447c-.459 1.195.108 1.553 2.456 1.553 1.994 0 2.909-.433 2.64-1.25-.616-1.87-4.409-2.095-5.096-.303m43.008-.78c-1.43 1.429-.538 2.333 2.302 2.333 2.228 0 2.825-.374 2.393-1.5-.587-1.528-3.486-2.042-4.695-.833m44 0c-1.43 1.429-.538 2.333 2.302 2.333 2.228 0 2.825-.374 2.393-1.5-.587-1.528-3.486-2.042-4.695-.833" fill="#363435" fill-rule="evenodd"/></svg>