<svg xmlns="http://www.w3.org/2000/svg" width="256" height="256"><path fill-opacity=".016" d="M0 128.004v128.004l128.25-.254 128.25-.254.254-127.75L257.008 0H0v128.004m.485.496c0 70.4.119 99.053.265 63.672.146-35.38.146-92.98 0-128C.604 29.153.485 58.1.485 128.5" fill="#1976D2" fill-rule="evenodd"/><path fill-opacity=".57" d="M192.103 48c.053.825.411 2.625.796 4 .769 2.75-1.628 6.283-4.038 5.951-2.418-.334-5.412.186-4.105.713 1.6.645.605 2.336-1.374 2.336-.825 0-1.222-.45-.882-1 .956-1.546.177-1.213-3.498 1.498-2.54 1.875-3.584 2.187-4.179 1.25-.443-.697-.799-.781-.808-.189-.008.582-.627 1.895-1.375 2.918-1.319 1.805-1.444 1.8-4.25-.182-20.442-14.438-51.032-16.606-75.14-5.325-4.415 2.066-6.25 2.533-6.25 1.591 0-.734-1.35-1.532-3-1.774-2.047-.301-3-.019-3 .886 0 .73-.477 1.327-1.059 1.327s-.783.446-.446.992.153 1.783-.41 2.75c-.918 1.575-1.027 1.524-1.055-.492C78.014 64.013 77.55 63 77 63s-1 .487-1 1.083-.562.896-1.25.667c-.687-.229-1.25-.901-1.25-1.493 0-.592-1.229-2.042-2.731-3.224-1.502-1.181-2.627-2.685-2.5-3.341.138-.712-1.29-1.318-3.549-1.504-2.414-.2-4.218-1.013-4.991-2.25C59.063 51.872 58.151 51 57.7 51c-.45 0-.562.414-.25.919.313.506-.111 1.599-.941 2.429-.83.83-1.509 1.991-1.509 2.581 0 .589-.723 1.071-1.607 1.071-1.028 0-1.397.548-1.022 1.523.468 1.222.212 1.324-1.294.518-1.412-.755-2.018-.637-2.446.477-.312.815-1.257 1.482-2.1 1.482-1.657 0-1.975-1.038-.781-2.55.413-.523.358-.648-.122-.278-.479.369-1.379.556-2 .414-.62-.142-.791-.069-.378.161 1.26.705.833 2.447-.491 2.006-.683-.228-1.84.185-2.572.917-1.758 1.758-3.157 1.686-3.312-.17-.282-3.385-1.433-5.5-2.993-5.5-.55 0-.722.45-.382 1 .34.55-.044 1-.852 1-.809 0-2.606 1.35-3.995 3-2.331 2.77-4.505 4.188-3.211 2.093.309-.498-.4-.655-1.575-.348-1.539.403-2.003.167-1.663-.843.259-.771-.243-1.95-1.116-2.62-1.59-1.22-3.937-1.797-2.838-.699.321.321-.272 1.439-1.317 2.484-1.511 1.511-2.782 1.778-6.222 1.307l-4.322-.593-1.693 4.311c-.968 2.464-1.318 4.686-.818 5.186.5.5.484 2.614-.037 4.934-.502 2.233-.97 6.586-1.041 9.674-.071 3.088-.489 5.856-.93 6.152-.441.296-.139 2.742.672 5.436 1.087 3.613 1.174 5.083.331 5.605-.838.518-.857 1.529-.068 3.792.675 1.937.72 3.305.119 3.676-.526.325-.65 1.087-.276 1.692.447.724.067.866-1.11.414-1.684-.646-1.694-.54-.164 1.795 1.818 2.775 2.087 3.955.707 3.102-.505-.312-1.165.674-1.467 2.191-.792 3.979-.441 12.248.545 12.857 1.294.8.996 4.184-.409 4.652-.971.324-1.004 1.34-.148 4.551.607 2.274.719 3.898.25 3.608-.468-.29-.852.587-.852 1.949 0 1.361.563 2.704 1.25 2.983.922.374.95.723.107 1.333C.074 153.601-.41 181 .857 181c.408 0 .558 1.575.333 3.5-.25 2.142.022 3.5.701 3.5.61 0 1.109.852 1.109 1.893s.675 2.152 1.5 2.469c.825.316 1.5.139 1.5-.393 0-.533 1.069-.969 2.375-.969 1.8 0 2.51.676 2.934 2.796.522 2.608 2.429 4.129 7.054 5.625 1.606.52 1.675.83.5 2.259-1.235 1.502-1.046 1.594 2.012.989 1.856-.368 3.706-.669 4.111-.669.405 0 .547-1.237.314-2.75-.36-2.35-.259-2.493.701-.979.617.974 1.566 1.497 2.109 1.161.629-.388.565-1.118-.174-2.009-.912-1.099-.775-1.548.641-2.091 1.059-.406 1.965-.205 2.196.488.217.649 1.079 1.18 1.917 1.18.929 0 1.304.573.961 1.468-.651 1.696.857 2.954 2.398 2.002.713-.441.662-1.113-.158-2.101-2.262-2.726.328-3.646 7.254-2.579 3.495.539 7.48.864 8.855.723 1.375-.142 3.513-.315 4.75-.385 1.237-.071 2.25-.567 2.25-1.103 0-.55-1.308-.713-3-.375-2.349.47-3 .247-3-1.025 0-.894.47-1.625 1.045-1.625 1.795 0 6.1-4.956 5.354-6.163-.451-.73-.264-.872.514-.391.777.481 1.421-.009 1.771-1.345.692-2.645 2.316-2.751 2.316-.151 0 1.073-.788 2.415-1.75 2.982-1.526.9-1.558 1.16-.25 2.034.825.552 1.093 1.01.595 1.019-.498.008-.09.915.905 2.015s2.265 2 2.822 2c.556 0 .733-.279.392-.619-.34-.341.057-1.295.883-2.121.826-.825 1.76-2.797 2.077-4.381.578-2.89 1.711-3.683 2.783-1.948.317.512.118 1.213-.441 1.559-.559.345-1.002 1.164-.984 1.819.017.658.627.407 1.36-.559 1.797-2.367 2.182-2.27 6.826 1.705 5.793 4.958 18.527 11.308 26.995 13.461 15.712 3.994 28.761 3.609 44.238-1.306 5.885-1.869 7.572-2.111 7.156-1.028-.318.827.068 1.418.924 1.418.808 0 1.469-.911 1.469-2.025 0-1.257.98-2.397 2.584-3.007 2.675-1.017 4.838-.46 3.929 1.011-.791 1.281.451 3.793 2.209 4.468 1.854.711 5.261-2.077 5.318-4.352.024-.946.677-.42 1.605 1.294 1.124 2.076 1.788 2.528 2.358 1.607.456-.739 1.715-1.042 2.968-.714 1.431.374 2.735-.083 3.808-1.337 1.579-1.844 1.667-1.803 2.677 1.228 1.629 4.891 3.864 5.724 8.531 3.18 3.33-1.815 4.119-1.931 5.099-.75 1.656 1.996 5.308 1.725 7.363-.546.967-1.069 3.174-2.228 4.905-2.575 1.73-.347 4.665-1.32 6.521-2.163 2.819-1.279 3.523-1.308 4.269-.175.726 1.101 1.154 1.016 2.279-.454.958-1.252 1.603-1.457 2.093-.665.442.716 1.555-.259 2.966-2.598 1.445-2.393 3.462-4.136 5.596-4.835 2.745-.898 3.648-1.964 5.091-6.009.965-2.705 2.186-5.185 2.714-5.51.527-.326 1.277-1.939 1.666-3.583.389-1.645 1.498-4.34 2.463-5.99 1.932-3.304 1.982-5.867.177-9.184-.654-1.202-1.189-3.351-1.189-4.777 0-3.936 5.841-32.781 7.064-34.886 1.09-1.875 1.411-41.076.35-42.792-.293-.474-1.405-.861-2.473-.861-1.068 0-1.941-.499-1.941-1.108 0-.698 1.02-.872 2.75-.47 2.04.474 2.363.377 1.25-.376-.825-.559-3.161-1.022-5.191-1.031-2.03-.008-3.938-.414-4.239-.902-.301-.487-2.015-1.176-3.809-1.531s-4.161-1.34-5.261-2.19c-1.863-1.439-1.658-1.509 3-1.012l5 .533-4.5-.886c-2.475-.487-7.425-1.34-11-1.895-3.575-.556-8.974-1.478-11.997-2.05-3.575-.676-6.702-.707-8.944-.088-4.129 1.14-4.39.947-4.273-3.165.086-3.016-2.592-6.553-3.78-4.994-.964 1.266-5.203 3.301-5.746 2.758-.3-.299-.011-1.188.641-1.973.934-1.126.753-2.138-.854-4.775-1.122-1.84-1.996-2.67-1.944-1.845m-12.642 7.043c-1.519 1.678-1.56 1.932-.232 1.423.889-.341 1.862-1.261 2.162-2.043.747-1.947.248-1.787-1.93.62M50 55.059c0 .582.45.781 1 .441s1-.816 1-1.059S51.55 54 51 54s-1 .477-1 1.059m57.362 1.868c-8.226 2.219-17.694 6.727-16.883 8.04.305.492.07 1.194-.521 1.559-.611.378-.809 1.875-.459 3.469.492 2.241-.04 3.551-2.651 6.525-3.62 4.123-5.066 7.892-1.943 5.066 4.407-3.988 4.784-.238.449 4.468-1.786 1.939-2.595 4.458-3.353 10.441-.55 4.338-1.386 8.138-1.857 8.446-.471.307-1.174 3.423-1.563 6.923-.388 3.5-1.209 7.169-1.825 8.154-.857 1.374-.624 3.856 1.001 10.637 1.165 4.865 1.883 10.195 1.595 11.845-.288 1.65-.485 8.078-.438 14.286.101 13.232.481 14.07 9.453 20.866 11.823 8.956 23.541 12.827 38.633 12.764 9.827-.041 17.954-1.822 25.21-5.523 3.59-1.832 3.765-2.15 3.665-6.658-.128-5.711 1.938-31.125 2.701-33.235.427-1.18.281-1.24-.683-.283-.675.669-1.226 2.581-1.226 4.25 0 2.85-.622 3.449-3.263 3.143-.603-.07-2.178 2.642-3.5 6.026-1.346 3.445-3.14 6.352-4.077 6.605-2.038.551-4.131 8.506-3.664 13.925.251 2.914-.06 3.883-1.324 4.127-2.533.487-3.279-1.677-3.028-8.786.125-3.579-.148-7.857-.609-9.507-.826-2.961-.948-3.008-9.27-3.611-4.637-.337-10.629-1.422-13.314-2.412-3.45-1.273-5.346-1.508-6.466-.801-2.654 1.674-5.117 11.78-4.234 17.37.632 3.996.485 4.969-.825 5.472-4.356 1.673-5.809-8.3-4.902-33.663.408-11.401 1.825-13.217 9.784-12.541 3.039.259 7.55.949 10.025 1.534 2.475.586 9.228 1.084 15.007 1.108 5.778.024 12.006.474 13.84 1 2.668.765 3.23.686 2.813-.399-.393-1.026.555-1.318 3.911-1.206 2.437.082 4.447-.301 4.466-.851.048-1.37.87-10.969 1.989-23.221.513-5.622.683-10.875.376-11.673-.656-1.71-3.402-2.981-3.402-1.575 0 .533.45.969 1 .969s.97 1.013.932 2.25l-.067 2.25-1.085-2.25c-.597-1.237-1.405-2.25-1.795-2.25-.776 0-.298-6.597.652-9 .327-.825.766-2.802.976-4.394.21-1.592.883-3.499 1.496-4.238.613-.738.873-1.972.578-2.74-.295-.769.105-2.313.888-3.432.784-1.118 1.152-2.745.818-3.615-.78-2.032.097-1.995 3.745.16 2.581 1.524 3.064 1.555 3.889.25.518-.82.949-2.183.958-3.03.021-2.129-9.538-7.717-19.32-11.292-7.329-2.68-9.598-3.02-22.165-3.326-11.45-.279-15.3.01-21.138 1.584m-95.549 2.756c.721.289 1.584.253 1.916-.079.332-.332-.258-.568-1.312-.525-1.165.048-1.402.285-.604.604M122 65c0 2.889.417 4 1.5 4 .825 0 1.5-.54 1.5-1.2 0-.933.267-.933 1.2 0 1.611 1.611 3.139 1.525 2.5-.141-.283-.737-.132-1.959.335-2.716 1.239-2.004-.806-3.943-4.157-3.943-2.691 0-2.878.26-2.878 4m-12.935-1.333c-3.653 2.559-2.017 7.333 2.513 7.333 2.935 0 4.778-2.445 4.045-5.368-.744-2.964-3.817-3.885-6.558-1.965m26.605 1.978c-.334 2.062-.51 3.834-.389 3.936.12.102 1.682.499 3.469.882 3.742.801 4.344-.594 1-2.315l-2.25-1.159 2.25.573c2.666.679 2.993-.996.5-2.56-1.482-.929-1.387-.998.618-.445 1.738.479 2.25.292 1.923-.702-.245-.745-1.81-1.491-3.479-1.658-2.804-.28-3.079-.02-3.642 3.448M125 64.059c0 .582.45.781 1 .441s1-.816 1-1.059-.45-.441-1-.441-1 .477-1 1.059m-15.52 1.973c-.388.628-.235 1.613.34 2.188 1.344 1.344 4.477.172 3.93-1.471-.556-1.671-3.386-2.147-4.27-.717M149 67.884c0 1.109.787 2.475 1.75 3.036.963.561 1.214 1.033.559 1.05-.655.016-1.474-.427-1.819-.986-.665-1.076-2.49-.406-2.49.915 0 1.12 4.27 2.877 5.75 2.366 1.84-.635 1.521-3.996-.5-5.263-1.482-.929-1.387-.998.618-.445 1.738.479 2.25.292 1.923-.702-.245-.745-1.648-1.497-3.118-1.671-2.118-.251-2.673.102-2.673 1.7m-52.749.147c-2.207.887-2.218.97-.565 4.437 1.605 3.366 4.886 5.186 3.679 2.04-.327-.851.116-1.755 1.031-2.107 2.321-.89 1.975-2.731-.396-2.111-2.466.645-2.569-.138-.25-1.898 1.402-1.064 1.452-1.322.25-1.297-.825.018-2.512.439-3.749.936M236.5 72c-.34.55-.168 1 .382 1s1.278-.45 1.618-1c.34-.55.168-1-.382-1s-1.278.45-1.618 1m-104.497 8.492c-.552 1.451-1.003 3.194-1.003 3.873 0 4.29-6.307 4.876-8.423.783-2.844-5.5-9.817-7.973-12.697-4.504-1.213 1.462-1.115 1.565.878.933 2.694-.855 2.851.048.492 2.827-1.693 1.994-1.687 2.013.173.579 1.784-1.376 1.882-1.32 1.344.767-.319 1.237-.267 2.25.116 2.25s.678 1.237.656 2.75c-.026 1.875.475 2.755 1.575 2.765 1.825.017 4.886 2.277 4.886 3.607 0 .483.9 1.778 2 2.878 1.111 1.111 2 3.333 2 5 0 2.556.381 3 2.571 3 2.338 0 2.429-.143 1-1.571-2.487-2.488-1.886-3.94 2.877-6.95 5.398-3.413 6.529-6.027 6.259-14.466-.168-5.28-.532-6.55-1.954-6.823-1.14-.219-2.096.582-2.75 2.302M134 108.14c-2.475.54-8.55.731-13.5.423-7.828-.486-9.423-.3-12.25 1.425-3.602 2.197-4.237 5.604-1.848 9.914.732 1.321 1.113 3.237.846 4.257-.666 2.546 1.748 8.057 3.273 7.471.679-.26 1.733.024 2.34.631 1.696 1.696 2.445.179 1.127-2.283-1.505-2.813.161-4.93 2.41-3.062.911.755 3.917 1.134 7.793.982l6.309-.249v3.339c0 1.837.563 3.528 1.25 3.759.786.264 1.25-.54 1.25-2.164 0-3.053 1.541-3.446 2.29-.583.826 3.16 2.412 2.327 1.922-1.009-.507-3.455 1.166-5.991 3.953-5.991 1.056 0 4.363-1.804 7.347-4.009 7.477-5.523 9.128-8.991 4.281-8.991-1.031 0-3.093-.876-4.583-1.946-3.455-2.481-8.496-3.16-14.21-1.914m24.079 2.443c.048 1.165.285 1.402.604.605.289-.722.253-1.585-.079-1.917-.332-.332-.568.258-.525 1.312M78 173c0 .55-.565 1-1.255 1-.691 0-1.808 1.688-2.482 3.75-1.216 3.715-1.187 3.786 3.005 7.555 14.726 13.241 38.044 20.391 57.719 17.697 4.504-.617 11.128-2.029 14.719-3.138l6.531-2.017-.608-3.674c-.334-2.02-.612-4.67-.618-5.887l-.011-2.215-4.478 1.92c-5.944 2.548-18.159 5.013-24.73 4.992-13.649-.045-31.037-6.766-40.932-15.821C79.113 171.903 78 171.227 78 173m-7.921 4.583c.048 1.165.285 1.402.604.605.289-.722.253-1.585-.079-1.917-.332-.332-.568.258-.525 1.312M46.5 192.972l-3 .616 2.895.761c1.609.424 3.313.343 3.837-.181 1.371-1.371-.287-1.902-3.732-1.196M0 202c0 .55.477 1 1.059 1s.781-.45.441-1-.816-1-1.059-1-.441.45-.441 1m8 1.059c0 .582.45.781 1 .441s1-.816 1-1.059S9.55 202 9 202s-1 .477-1 1.059m4.441 1.394c1.068.851 3.318 1.533 5 1.517 3.759-.038 1.788-1.413-3.441-2.402-3.286-.622-3.381-.568-1.559.885M21.5 205c.34.55.816 1 1.059 1s.441-.45.441-1-.477-1-1.059-1-.781.45-.441 1" fill="#1976D2" fill-rule="evenodd"/><path fill-opacity=".296" d="M112.075 54.087c-16.311 3.201-32.873 12.256-42.816 23.412-26.09 29.272-26.471 72.996-.883 101.501 10.532 11.733 26.749 21.205 42.014 24.54 11.413 2.493 28.341 1.662 38.881-1.908 4.274-1.448 8.437-2.632 9.25-2.632.813 0 1.479-.378 1.479-.839 0-.462 1.175-1.376 2.612-2.03 2.76-1.258 5.979.104 4.791 2.026-.316.512-.048 1.566.596 2.342.934 1.125 1.56 1.169 3.086.216 1.053-.658 1.915-1.763 1.915-2.456 0-1.629 1.917-1.636 2.546-.009.834 2.159 7.685 1.684 9.604-.666 1.792-2.195 2.303-1.724 3.041 2.809.581 3.559 3.324 4.237 7.699 1.902 3.943-2.105 4.02-2.108 6.204-.213 2.74 2.376 2.403 2.404 6.235-.519 1.757-1.341 4.315-2.654 5.683-2.918 1.368-.263 4.001-1.25 5.849-2.191 2.804-1.427 3.503-1.483 4.211-.338.684 1.107 1.133.986 2.307-.619.802-1.097 1.776-1.675 2.166-1.285.389.389 1.664-.702 2.832-2.425 1.222-1.804 3.085-3.201 4.392-3.294 2.1-.15 5.125-2.937 5.199-4.791.018-.439.921-2.638 2.007-4.886 1.086-2.249 1.735-4.477 1.441-4.952-.294-.475-.057-.864.525-.864.582 0 1.059-.9 1.059-2s.45-2 1-2 1-.927 1-2.059c0-1.132.45-1.781 1-1.441 1.446.894 1.22-3.554-.331-6.527-.987-1.89-1.104-4.283-.466-9.5.469-3.835 1.025-8.389 1.234-10.12.209-1.73 1.14-6.558 2.067-10.728.928-4.17 1.698-7.93 1.71-8.354.013-.424.645-1.659 1.404-2.744 1.062-1.516 1.382-6.529 1.382-21.67V76.159l-3.071-.674c-1.72-.378-2.876-1.183-2.628-1.83.272-.713-.911-1.255-3.092-1.417-1.943-.144-4.086-.721-4.762-1.282-1.369-1.136-9.443-.885-9.446.294 0 .412-.676.75-1.501.75-.825 0-1.5-.257-1.5-.571 0-1.063 2.849-3.429 4.129-3.429 1.017 0 1.021-.25.02-1.25-.773-.773-3.904-1.229-8.2-1.194-3.822.031-6.949-.292-6.949-.718 0-.427.787-.498 1.75-.159 1.293.455 1.471.311.682-.55-1.152-1.256-14.426-1.869-16.238-.749-1.641 1.015-3.604-3.181-2.251-4.811.787-.949.724-1.6-.233-2.394-1.789-1.486-5.723-.373-5.034 1.424.324.843-.102 1.401-1.069 1.401-.884 0-1.607-.419-1.607-.93 0-.57-1.233-.577-3.184-.017-1.751.502-3.398.698-3.66.436-.262-.262-1.134.463-1.938 1.611-1.018 1.452-2.204 1.945-3.903 1.62-1.788-.342-3.398.435-6.018 2.907-1.967 1.855-3.73 3.373-3.917 3.373-.188 0-2.736-1.532-5.662-3.404-15.095-9.656-37.262-13.919-54.643-10.509m-.219 1.355c-24.668 5.171-47.947 25.688-55.737 49.123-14.346 43.162 11.355 88.81 55.091 97.843 13.346 2.757 25.381 1.992 39.37-2.504l6.08-1.954-.454-5.725c-.25-3.149-.584-5.873-.742-6.053-.158-.181-3.59.925-7.626 2.456-6.727 2.554-8.503 2.789-21.338 2.829-12.682.039-14.676-.204-21.176-2.581-13.025-4.763-26.326-15.17-33.424-26.152-3.776-5.842-8.202-17.089-7.142-18.148.904-.905 2.242-.674 2.242.386 0 2.743 4.671 12.778 9.011 19.361 8.556 12.977 21.03 21.606 36.489 25.242 12.617 2.968 30.109.895 41.116-4.872 2.605-1.365 2.877-2.018 3.056-7.345.212-6.266.765-14.191 1.855-26.598.427-4.853.315-7.75-.298-7.75-.999 0-2.64 5.486-2.319 7.75.276 1.943-3.706 1.471-4.221-.5-.251-.963-.509-.345-.573 1.373-.15 4.036-3.819 12.326-5.79 13.082-.84.323-1.87.033-2.288-.643-.56-.906-.928-.792-1.399.436-.98 2.553-.741 4.207.361 2.502.799-1.237.972-1.14.985.55.008 1.127-.462 2.527-1.046 3.111-1.161 1.161-1.552 8.538-.539 10.177.93 1.505-1.117 2.419-2.081.928-.45-.696-.87-4.416-.931-8.266-.062-3.85-.411-8.35-.775-10l-.662-3-8.15.184c-5.776.131-8.755-.24-10.226-1.274-1.141-.803-3.776-1.919-5.855-2.481-2.29-.619-3.516-1.449-3.111-2.105.391-.633.092-.895-.72-.63-2.315.757-5.893 12.656-5.567 18.518.237 4.259.046 5.008-1.048 4.101-1.096-.91-1.156-.633-.331 1.538.554 1.457.677 2.649.273 2.649-1.831 0-3.09-4.35-3.22-11.126-.182-9.418-.151-9.667.98-7.879.91 1.44.619-11.674-.444-19.977-.332-2.595.098-4.059 1.686-5.75 2.527-2.69 5.514-2.839 12.85-.64 4.641 1.392 11.487 1.963 27.615 2.305 2.268.048 3.365.641 3.817 2.067.349 1.1 1.392 1.986 2.317 1.97 1.535-.028 1.529-.12-.067-1.05-2.549-1.485-2.141-3.056.614-2.365 1.628.409 2.553.103 2.969-.981.777-2.023 4.074-2.025 6.096-.003 1.428 1.429 1.581 1.088 1.681-3.75.06-2.926.233-6.801.385-8.609a2864 2864 0 00.947-12c.369-4.792.909-10.112 1.2-11.823.44-2.589.161-3.207-1.657-3.683-1.267-.331-1.898-1.037-1.501-1.679.376-.61 1.544-.836 2.594-.502 1.444.458 1.763.225 1.311-.954-.329-.858-1.078-1.263-1.664-.901-.672.416-.824.031-.412-1.044.405-1.054.089-1.918-.83-2.271-2.985-1.145-1.409-7.347 1.874-7.37 1.555-.011 1.777-.248.809-.861-1.074-.681-1.025-.964.25-1.453 2.349-.902 1.961-2.925-.416-2.171-2.35.746-2.559-.353-.583-3.056 1.001-1.368 1.112-2.307.378-3.191-1.588-1.913.396-1.451 3.205.747 3.286 2.571 3.86 2.498 5.053-.64.784-2.062.646-3.035-.633-4.448-2.356-2.604-16.891-9.519-23.92-11.38-8.508-2.253-25.474-2.802-33.644-1.09m10.954 9.063c-.233 1.989-.06 3.841.384 4.115.443.274.806-.204.806-1.061 0-1.988 1.606-2.028 2.362-.059 1.042 2.718 2.138 1.565 2.138-2.25 0-3.307-.311-3.786-2.634-4.055-2.354-.273-2.679.079-3.056 3.31m13.365.745c-1.109 4.088-.716 4.778 2.634 4.634 1.693-.073 2.042-.286.941-.573-2.507-.656-2.161-2.299.5-2.374 2.194-.062 2.188-.091-.25-1.155l-2.5-1.091 3-.634 3-.634-2.5-.698c-3.749-1.046-3.873-.981-4.825 2.525m-28.2-.72c-.97 1.169-1.004 2.111-.143 4 1.286 2.822 4.267 3.228 6.597.899 1.859-1.86 1.875-1.993.536-4.495-1.239-2.314-5.214-2.544-6.99-.404M124 64c0 .55.675 1 1.5 1s1.5-.45 1.5-1-.675-1-1.5-1-1.5.45-1.5 1m-13.986.992c-1.858 1.148-.463 4.008 1.955 4.008 1.326 0 2.031-.657 2.031-1.893 0-2.184-2.085-3.291-3.986-2.115m39.447 2.071c-.361.585.175 2.002 1.191 3.15 1.833 2.07 1.824 2.081-1.077 1.374-2.574-.627-2.769-.526-1.627.85 1.486 1.79 4.62 2.071 5.591.5.361-.585-.062-1.858-.941-2.829-2.173-2.401-2.009-3.011.652-2.428 1.808.397 1.955.283.75-.578-1.922-1.373-3.705-1.388-4.539-.039m-52.316 1.06c-1.726.653-2.163 1.355-1.636 2.633.395.959.944 2.531 1.221 3.494.277.963.949 1.75 1.494 1.75.544 0 .724-.692.4-1.538-.336-.875.049-1.783.893-2.107 2.333-.895 1.731-2.221-.767-1.687-2.186.467-2.196.436-.323-1.083 2.407-1.954 1.813-2.632-1.282-1.462M235.5 72c-.792 1.282 3.517 1.282 5.5 0 1.141-.738.737-.973-1.691-.985-1.755-.008-3.469.435-3.809.985m-72 4c-.34.55.084 1 .941 1S166 76.55 166 76s-.423-1-.941-1-1.219.45-1.559 1m-84.396 4.56l-2.396 2.526 2.807 2.929 2.807 2.93 2.339-2.524C87.57 83.282 87.569 83 84.639 83c-1.98 0-2.284-.404-1.884-2.5.607-3.172-.603-3.152-3.651.06m54.162-1.343c-.569.706-1.349 2.749-1.732 4.541-1.255 5.871-7.754 6.778-9.647 1.346-1.274-3.653-5.547-5.95-9.387-5.047l-3 .706 3 .134c2.124.095 2.598.388 1.622 1.007-.758.48-1.057 1.392-.664 2.028.393.636.113 1.897-.622 2.804-.953 1.175-.977 1.432-.086.897.893-.537 1.25.139 1.25 2.367 0 1.715.368 2.891.818 2.613.902-.558 4.377 2.522 8.081 7.163l2.399 3.006 4.934-3.544c2.714-1.95 5.314-4.544 5.778-5.765 1.171-3.079.509-10.136-1.141-12.164-1.204-1.481-1.148-1.601.465-.996 1.202.451 1.697.279 1.437-.5-.587-1.761-2.328-2.057-3.505-.596m28.341 8.365c-.939 2.446-.735 2.769.893 1.418 1.662-1.38 1.99-3 .607-3-.491 0-1.166.712-1.5 1.582M70.57 91.204c-1.313 1.874-1.342 2.509-.192 4.25 1.797 2.722 5.654 3.223 7.316.95C79.437 94.021 79.348 92 77.5 92c-.825 0-1.5.675-1.5 1.5s-.648 1.5-1.441 1.5c-1.846 0-2.903-1.67-1.575-2.49 1.28-.791 1.337-3.51.073-3.51-.519 0-1.638.992-2.487 2.204m-7.231 13.356c-.675 1.757 4.425 7.691 6.113 7.113.577-.197.907-1.333.734-2.523-.184-1.264.336-2.413 1.25-2.764.86-.33 1.564-1.227 1.564-1.993 0-2.073-8.86-1.92-9.661.167M125 106c0 1.1.408 2 .906 2 .499 0 .671-.9.384-2-.288-1.1-.696-2-.907-2-.21 0-.383.9-.383 2m7 2.943c-1.375.465-6.775.615-12 .334-8.695-.468-9.733-.326-12.25 1.678-3.244 2.584-3.421 4.432-.831 8.68 1.115 1.829 1.541 3.505 1.022 4.024-1.432 1.432.515 6.861 2.405 6.702.91-.076 1.654.261 1.654.75s.439.889.975.889c.613 0 .641-.881.073-2.373-1.309-3.444.545-4.94 3.623-2.923 1.831 1.2 3.817 1.425 8.365.95 6.304-.659 6.522-.496 6.031 4.507-.089.914.309 1.953.885 2.309.642.397 1.048-.515 1.048-2.352 0-1.65.45-3.278 1-3.618.55-.34 1 .282 1 1.382 0 1.1.526 2.325 1.17 2.723.796.492.957.169.504-1.013-.367-.955-.203-2.604.365-3.664.767-1.434.702-1.956-.254-2.038-.707-.06.638-.488 2.988-.951 2.525-.498 6.207-2.396 9-4.641 7.102-5.706 7.64-6.795 3.727-7.543-1.375-.263-2.5-.064-2.5.443 0 .506-.457.637-1.016.292-.559-.346-.814-.956-.566-1.357.247-.401.061-1.359-.416-2.129-1.013-1.64-12.116-2.376-16.002-1.061M142 111c0 1.1.173 2 .383 2 .211 0 .619-.9.907-2 .287-1.1.115-2-.384-2-.498 0-.906.9-.906 2m-75.7 6.413c-.44.778-2.051 1.565-3.581 1.75-3.972.481-3.471 2.195.908 3.105 4.088.849 5.331-.083 5.358-4.018.017-2.524-1.468-2.987-2.685-.837m42.7 9.469c0 .55.45 1.278 1 1.618.55.34 1 .168 1-.382s-.45-1.278-1-1.618c-.55-.34-1-.168-1 .382m-48.891 2.409c-.61.61-1.109 2.369-1.109 3.909 0 2.657.232 2.8 4.56 2.8h4.561l-.311-3.75c-.284-3.431-.577-3.763-3.451-3.909-1.728-.087-3.64.34-4.25.95M97.755 157.5c-.263 1.375-.09 2.5.384 2.5.473 0 .861-1.125.861-2.5s-.173-2.5-.383-2.5c-.211 0-.599 1.125-.862 2.5M100.5 169c.34.55.816 1 1.059 1s.441-.45.441-1-.477-1-1.059-1-.781.45-.441 1" fill="#1976D2" fill-rule="evenodd"/><path fill-opacity=".5" d="M122.28 53.736c2.629.207 6.679.204 9-.005 2.321-.21.17-.379-4.78-.376-4.95.003-6.849.175-4.22.381m-16.78 2.136c-38.221 11.016-61.485 48.673-54.056 87.5 2.974 15.542 9.447 27.53 21.123 39.12 10.588 10.511 24.175 18.386 34.611 20.063 1.827.293.099-.55-3.84-1.875-19.508-6.562-34.746-19.847-43.794-38.18-6.211-12.586-7.878-19.655-7.9-33.5-.014-8.858.488-13.294 2.182-19.309 7.715-27.382 29.595-48.224 56.735-54.041 3.816-.818 5.589-1.492 3.939-1.497-1.65-.006-5.7.768-9 1.719m31.769-1.179c.973.254 2.323.237 3-.037.677-.274-.119-.481-1.769-.461-1.65.02-2.204.244-1.231.498m5.544.99c.721.289 1.584.253 1.916-.079.332-.332-.258-.568-1.312-.525-1.165.048-1.402.285-.604.604m7.925 2.24c11.202 4.164 17.675 8.437 27.348 18.05 8.221 8.171 10.249 10.879 14.249 19.027 6.675 13.6 8.155 20.004 8.085 35-.053 11.27-.363 13.39-3.153 21.549-1.702 4.977-4.762 11.895-6.801 15.374-7.35 12.541-21.177 24.766-35.932 31.771-2.769 1.314-4.205 2.144-3.191 1.843 1.013-.3 3.038-.843 4.5-1.206 5.439-1.353 16.856-9.065 24.179-16.331 27.192-26.983 30.27-67.612 7.536-99.471-2.406-3.372-6.168-7.751-8.36-9.731-7.686-6.944-23.67-15.929-30.698-17.256-1.65-.312-.643.31 2.238 1.381m-27.622 7.327c.064 2.338.322 3.463.573 2.5.561-2.145 2.17-2.281 2.949-.25.317.825 1.068 1.5 1.669 1.5.77 0 .759-.334-.035-1.128-.838-.838-.825-1.618.05-3.031.943-1.523.879-2.092-.322-2.856-3.48-2.214-5.006-1.193-4.884 3.265M124 63.5c0 1.03.655 1.52 1.75 1.31 2.108-.406 1.975-2.181-.197-2.633-.906-.189-1.553.362-1.553 1.323m12.505 1.476c-.807 3.678-.036 5.043 2.804 4.961 2.083-.061 2.067-.118-.309-1.155l-2.5-1.091 3-.727c2.397-.581 2.548-.751.75-.846-1.238-.065-2.25-.568-2.25-1.118 0-.55 1.012-1.032 2.25-1.07 2.147-.067 2.158-.11.25-.93-3.073-1.32-3.295-1.211-3.995 1.976m-27.255-1.332c-2.015.843-1.542 6.129.609 6.811 3.352 1.064 5.276-.427 4.945-3.833-.304-3.118-2.458-4.273-5.554-2.978m.451.988c-1.002 1.003-.866 4.148.209 4.812 1.756 1.086 4.199-.678 3.893-2.811-.303-2.113-2.781-3.322-4.102-2.001m39.76 2.431c-.361.585.134 1.937 1.102 3.006 1.9 2.1 1.174 4.068-.78 2.114-.651-.651-1.656-1.169-2.233-1.151-1.507.045 2.57 2.968 4.141 2.968 1.529 0 1.776-3.593.309-4.5-1.61-.995-1.148-2.771.552-2.118.89.341 1.291.173.941-.393-.808-1.308-3.205-1.263-4.032.074m-52.13 1.222c-2.018 1.131-2.074 1.44-.798 4.465 1.323 3.138 3.263 4.767 2.116 1.776-.311-.81.203-1.956 1.143-2.547 1.443-.908 1.359-.979-.542-.459-2.731.746-3.042-1.198-.5-3.128 2.185-1.658 1.451-1.714-1.419-.107m65.083 4.446c.386 1.213.039 2.478-.891 3.25-.838.695-1.508 1.771-1.49 2.391.019.621.918.067 1.998-1.23 1.149-1.379 2.588-2.118 3.467-1.781 2.355.903 1.702-.67-1.138-2.739-2.538-1.851-2.567-1.849-1.946.109M81.1 80.719c-.07 1.541-.558 2.043-1.6 1.643-2.246-.862-1.808 1 .814 3.464 2.7 2.536 3.861 2.793 3.048.674-.4-1.041.069-1.5 1.531-1.5 1.159 0 2.107-.391 2.107-.87 0-.478-.99-.816-2.2-.75-1.545.084-2.407-.623-2.9-2.38-.654-2.334-.707-2.353-.8-.281m51.032 1.765c-.913 3.307-5.132 9.791-5.132 7.888 0-.88-2.783-2.637-6.25-3.945-.963-.363-1.743-1.395-1.735-2.294.014-1.42.142-1.437.985-.133.736 1.139.973 1.177.985.156.008-.739-.885-1.579-1.985-1.866-1.1-.288-2-.921-2-1.407 0-.485-.45-.883-1-.883-1.439 0-1.234 2.739.25 3.338.747.301.545.536-.5.583-2.041.092-2.292 2.104-.5 4.004 1 1.06 1 1.417 0 1.783-.687.252-1.25.857-1.25 1.344 0 .487.624.646 1.387.353 1.386-.532 5.613 4.363 5.613 6.499 0 .603.436 1.096.969 1.096.532 0 .692-.72.355-1.599-.538-1.402-.348-1.433 1.541-.253 1.185.74 1.7 1.497 1.145 1.682-1.315.438-1.316 3.17-.001 3.17 1.674 0 9.412-5.995 10.603-8.215.699-1.302.814-3.394.312-5.624-.441-1.953-.58-3.908-.311-4.344.27-.437-.275-.5-1.211-.141-1.426.547-1.593.221-1.033-2.012.996-3.965-.12-3.226-1.237.82m-1.382 5.599c-.963 1.055-1.37 1.917-.905 1.917.465 0 1.66-.9 2.655-2 .995-1.1 1.403-1.963.905-1.917-.498.046-1.692.946-2.655 2m43.049.459c-.995 2.183-.851 2.851 1.017 4.719 2.007 2.007 2.302 2.05 3.798.553.893-.892 1.318-2.115.945-2.718-1.041-1.685-2.557-1.3-2.574.654-.013 1.492-.156 1.529-.964.25-.655-1.036-.477-1.964.576-3 1.357-1.335 1.683-1.288 2.954.427 1.82 2.455 2.973 1.42 1.495-1.341-1.614-3.015-5.785-2.752-7.247.456M120.5 89c-1.63.701-1.688.872-.309.93.93.038 1.969-.38 2.309-.93.711-1.15.676-1.15-2 0m-50.06 3.188c-.957 3.016 2.878 6.247 5.653 4.762 1.049-.561 1.893-1.792 1.877-2.735-.029-1.598-.1-1.596-1.05.035-.561.963-1.686 1.75-2.501 1.75-2.052 0-2.9-2.716-1.408-4.513 1.002-1.208.942-1.487-.321-1.487-.855 0-1.868.985-2.25 2.188m62.56.871c0 .582.45.781 1 .441s1-.816 1-1.059-.45-.441-1-.441-1 .477-1 1.059m50.25 5.596c-3.382 1.406-4.376 3.345-1.715 3.345 1.209 0 1.315.412.497 1.939-.597 1.116-.656 2.175-.139 2.495.493.305 1.142-.083 1.441-.862.316-.824 1.348-1.206 2.467-.914 2.519.659 3.574-2.095 1.944-5.076-1.165-2.131-1.455-2.191-4.495-.927m1.75 2.904c0 .857.457 1.276 1.016.931.559-.346.758-1.047.441-1.559-.857-1.387-1.457-1.129-1.457.628m-121 3.767c0 1.404 4.08 5.674 5.421 5.674.436 0 .554-.623.261-1.385-.292-.762.135-2.337.95-3.5 1.435-2.049 1.355-2.115-2.575-2.115-2.703 0-4.057.443-4.057 1.326m2 .674c0 .55.702 1 1.559 1s1.281-.45.941-1c-.34-.55-1.041-1-1.559-1s-.941.45-.941 1m66 3.139c-1.51.612-6.263.749-12.001.347-8.843-.62-9.696-.512-12.325 1.556-2.272 1.787-2.697 2.732-2.17 4.83.36 1.434.967 2.837 1.348 3.118 1.393 1.024 4.293 6.199 3.768 6.724-.579.579 2.091 6.286 2.941 6.286.28 0 .005-.942-.611-2.094-.928-1.733-.731-2.51 1.139-4.5 1.243-1.323 2.969-2.392 3.835-2.376 1.326.026 1.299.192-.174 1.05-4.393 2.559.901 4.496 8.427 3.083 4.378-.821 4.714-.732 5.25 1.4.314 1.253.298 2.989-.035 3.858-.333.868-.204 1.579.288 1.579s.969-.989 1.06-2.198c.271-3.601 3.678-7.342 6.38-7.007 1.963.243 2.117.096.88-.837-1.217-.918-1.046-1.031.909-.597 2.618.581 11.481-4.92 10.496-6.515-.293-.473.169-1.129 1.026-1.458 2.433-.933.836-2.304-2.07-1.777-2.025.367-2.477.134-2.026-1.042 1.437-3.745-9.756-6.095-16.335-3.43m9.393 1.443c.334.87.607 1.995.607 2.5 0 .505.675.918 1.5.918 1.816 0 1.991-1.635.25-2.338-.725-.292-.49-.537.559-.583 2.478-.108 1.08-2.079-1.475-2.079-1.457 0-1.873.457-1.441 1.582m-8.164.606c.218.653.931 1.365 1.584 1.583.731.244.954-.214.581-1.187-.698-1.818-2.765-2.196-2.165-.396m5.771.871c0 .582.45.781 1 .441s1-.816 1-1.059-.45-.441-1-.441-1 .477-1 1.059m47.25-.353c-2.648.51-3.041 2.3-.5 2.28 2.875-.022 6.25-1.158 6.25-2.103 0-.9-1.723-.953-5.75-.177m-47.171 3.877c.048 1.165.285 1.402.604.605.289-.722.253-1.585-.079-1.917-.332-.332-.568.258-.525 1.312m-71.943 2.798c-.114 1.576-.703 1.789-3.636 1.313-4.598-.746-4.554 1.018.047 1.881 4.172.782 4.766.392 4.17-2.739-.327-1.717-.481-1.838-.581-.455M134 120.5c-.718.865-.815 1.5-.229 1.5.558 0 1.274-.675 1.591-1.5.316-.825.419-1.5.229-1.5-.19 0-.906.675-1.591 1.5m52 2.5c0 1.65.45 3 1 3s1-.9 1-2c0-1.556.667-2 3-2 1.65 0 3-.45 3-1s-1.8-1-4-1c-3.778 0-4 .167-4 3m-64.187-1.317c.721.289 1.584.253 1.916-.079.332-.332-.258-.568-1.312-.525-1.165.048-1.402.285-.604.604m-14.058 4.817c.263 1.375.651 2.5.862 2.5.21 0 .383-1.125.383-2.5s-.388-2.5-.861-2.5c-.474 0-.647 1.125-.384 2.5m27.912 1.167c-.903.903-.846 4.104.083 4.678.412.255.75-.843.75-2.44 0-1.598-.037-2.905-.083-2.905-.046 0-.384.3-.75.667m-72.917 1.117c-2.296.291-2.75.833-2.75 3.282 0 2.756.242 2.934 4 2.934 3.192 0 4-.365 4-1.809 0-2.898-2.251-4.787-5.25-4.407m1.696 2.303c-.369.598-.171 1.588.441 2.2.817.817 1.113.528 1.113-1.087 0-2.415-.519-2.787-1.554-1.113M61 132c0 .55.45 1 1 1s1-.45 1-1-.45-1-1-1-1 .45-1 1m124.787 3c-.473 3.219 1.086 4.203 1.875 1.183.359-1.372 1.192-1.711 3.407-1.386 3.425.503 3.986-1.281.681-2.167-4.38-1.174-5.509-.725-5.963 2.37m-84.617 1.511c-1.638 2.082-1.84 3.153-1.091 5.766 1.261 4.395 1.165 20.079-.131 21.375-1.572 1.572-.773 13.582.941 14.148.843.279 1.115.015.691-.67-.384-.622-.221-1.13.361-1.13s1.052-.787 1.044-1.75c-.013-1.496-.157-1.532-.985-.25s-.972 1.246-.985-.25c-.008-.963.435-1.75.985-1.75s1-.477 1-1.059-.419-.8-.931-.484c-2.183 1.35-1.981-1.706.313-4.713 1.371-1.798 2.711-4.471 2.977-5.941.416-2.293 4.371-8.803 5.348-8.803.182 0 .061 1.078-.27 2.395-.525 2.09-.112 2.553 3.231 3.631 2.108.679 4.377 1.667 5.044 2.195.667.529 5.044.961 9.728.961h8.516l.895 3.24c.492 1.782.813 6.129.712 9.659-.186 6.563.156 8.92 1.294 8.917.354-.001.741-3.973.861-8.828.121-4.854.655-9.915 1.187-11.248l.968-2.422.064 2.75c.107 4.65 2.93 3.282 5.696-2.759 1.88-4.108 2.345-6.334 1.828-8.75-.382-1.783-.328-2.889.12-2.46.448.43 1.432-.245 2.186-1.5.754-1.254 1.135-1.508.846-.563-1.016 3.322 1.187 2.724 2.846-.772 1.249-2.633 2.136-3.392 3.468-2.969 2.08.66 4.793-1.914 3.113-2.953-.582-.359-1.901-.386-2.931-.059-1.172.372-2.089.029-2.453-.918-.362-.945-1.22-1.268-2.282-.86-1.152.442-1.468.275-.979-.517 1.061-1.717-.996-1.426-2.821.398-.953.954-2.353 1.319-3.571.933-1.102-.35-2.003-.208-2.003.315s1.012 1.276 2.25 1.673c2.1.675 2.12.757.3 1.229-1.196.31-2.562-.249-3.53-1.445-1.371-1.694-3.317-2.029-14.723-2.536-7.229-.321-13.966-1.009-14.97-1.527-1.005-.518-4.149-1.237-6.987-1.598-4.729-.602-5.327-.444-7.17 1.899m43.83 7.656c0 .641.296.87.658.508.362-.362 1.262-.156 2 .456.844.7 1.342.737 1.342.098 0-.558-.712-1.288-1.582-1.622-2.175-.835-2.418-.778-2.418.56m-79.548 2.958c.367 1.306 2.511 6.186 4.765 10.845 9.896 20.455 32.186 34.056 55.743 34.015 20.909-.036 40.206-9.55 51.515-25.397 5.09-7.134 9.559-16.522 9.457-19.867-.065-2.14-.107-2.13-1.152.279-7.4 17.049-14.446 26.169-26.475 34.268-9.541 6.423-17.489 8.912-30.317 9.493-12.446.564-19.685-.936-30.988-6.421-10.509-5.099-21.165-15.923-26.841-27.263-2.288-4.57-4.159-8.905-4.159-9.634 0-.729-.498-1.633-1.107-2.009-.752-.465-.894.077-.441 1.691m79.548-.184c0 .518.408 1.193.906 1.501.498.308.671 1.46.383 2.559-.607 2.322 1.213 2.738 2.081.476.322-.838-.304-2.411-1.393-3.5-1.087-1.087-1.977-1.554-1.977-1.036M111.5 149c-.34.55-.141 1 .441 1s1.059-.45 1.059-1-.198-1-.441-1-.719.45-1.059 1m42 2c-.34.55.11 1 1 1s1.34-.45 1-1c-.34-.55-.79-1-1-1-.21 0-.66.45-1 1m-42 3c-.34.55.11 1 1 1s1.34-.45 1-1c-.34-.55-.79-1-1-1-.21 0-.66.45-1 1m-13.342 4c0 1.375.227 1.938.504 1.25.278-.687.278-1.812 0-2.5-.277-.687-.504-.125-.504 1.25m43.342 44.523c-2.834.728-3.917 1.293-2.5 1.304 1.375.011 4.3-.574 6.5-1.299 5.105-1.683 2.539-1.686-4-.005m-29.231 1.17c.973.254 2.323.237 3-.037.677-.274-.119-.481-1.769-.461-1.65.02-2.204.244-1.231.498m9.515 1.045c2.905.203 7.405.201 10-.004 2.594-.206.216-.371-5.284-.369-5.5.003-7.622.171-4.716.373" fill="#1976D2" fill-rule="evenodd"/></svg>